<?xml version="1.0" encoding="UTF-8"?>
<svg id="_Слой_2" data-name="Слой 2" xmlns="http://www.w3.org/2000/svg" viewBox="0 0 456.39 365.9">
  <defs>
    <style>
      .cls-1 {
        fill: gray;
        stroke-width: 0px;
      }
    </style>
  </defs>
  <g id="_Слой_1-2" data-name="Слой 1">
    <g>
      <path class="cls-1" d="m58.95,73C77.19,41.75,77.53,12.44,76.92,0H0c.09,42.64.18,85.29.28,127.93,11.55-5.9,39.5-22.08,58.67-54.93Z"/>
      <path class="cls-1" d="m60.81,254.29c11.52,20.66,20.32,43.72,25.76,68.45,40.1,6.75,86.11,11.57,137.01,11.82,54.46.27,103.48-4.73,145.77-11.87,5.44-24.71,14.24-47.76,25.75-68.41H60.81Z"/>
      <path class="cls-1" d="m98.03,124.99c12.99-20.1,38.15-59.97,38.15-113.26,0-3.94-.14-7.84-.38-11.72h-47.03c1.92,49.18-17.58,99.04-55.16,133.93-10.03,9.48-21.21,17.93-33.27,25.27.03,15.44.07,30.88.1,46.32-.15-.13-.29-.27-.44-.4v160.77h76.74c-.92-14.82-3.18-29.24-6.6-43.15-6.08-24.73-15.92-47.79-28.8-68.45-9.77-15.68-21.26-30-34.23-42.57,24.77-14.9,62.08-42.12,90.92-86.74Z"/>
      <path class="cls-1" d="m455.94,205.52c.03-15.44.07-30.88.1-46.32-12.06-7.34-23.24-15.79-33.27-25.27-37.58-34.9-57.08-84.75-55.16-133.93h-47.03c-.24,3.88-.38,7.79-.38,11.72,0,53.29,25.16,93.15,38.15,113.26,28.84,44.63,66.16,71.85,90.93,86.74-12.97,12.57-24.46,26.88-34.23,42.56-12.87,20.65-22.71,43.7-28.79,68.41-3.43,13.93-5.69,28.36-6.61,43.2h76.74v-160.77c-.16.13-.3.27-.45.4Z"/>
      <path class="cls-1" d="m397.44,73C379.2,41.75,378.86,12.44,379.47,0h76.92c-.09,42.64-.18,85.29-.28,127.93-11.55-5.9-39.51-22.08-58.67-54.93Z"/>
      <path class="cls-1" d="m294.19,22.57c-19.09,30.34-59.01,46.62-97.85,30.28-15.1-6.56-26.49-16.65-34.26-28.53-1.24,20.68-5.45,40.61-12.32,59.4,23.88,9.25,49.98,14.43,77.3,14.67v.05c.2,0,.4,0,.59,0h.54c.18,0,.36,0,.54,0h.59v-.05c27.32-.24,53.42-5.42,77.3-14.67-7.06-19.31-11.34-39.84-12.43-61.15Z"/>
      <path class="cls-1" d="m229.33.01h-67.14c.02.37.03.74.05,1.11,3.67,9.56,9.77,18.28,18.08,24.92,37.41,31,98.13,16.34,113.88-25.15.02-.29.02-.59.04-.88h-64.91Z"/>
    </g>
  </g>
</svg>