<svg width="92" height="282" viewBox="0 0 92 282" fill="none" xmlns="http://www.w3.org/2000/svg">
<path d="M66.2268 96.2667C75.0025 80.7846 92 50.0744 92 9.02741C92 5.9926 91.9054 2.9886 91.7433 0H59.9709C61.268 37.8812 48.0943 76.2863 22.7061 103.161C15.9301 110.463 8.37715 116.971 0.229696 122.625C0.249963 134.518 0.276986 146.41 0.297254 158.303C0.195917 158.203 0.101336 158.095 0 157.995V281.829H51.8437C51.2222 270.414 49.6954 259.307 47.3849 248.593C43.2774 229.544 36.6298 211.782 27.9283 195.869C21.3279 183.791 13.5656 172.761 4.80335 163.079C21.5374 151.602 46.7431 130.636 66.2268 96.2667Z" fill="#808080"/>
<path d="M39.6539 48.1948C51.9234 27.5634 52.1521 8.21292 51.7418 0H0C0.0605403 28.151 0.121081 56.3087 0.188348 84.4597C7.95769 80.5645 26.7588 69.8824 39.6539 48.1948Z" fill="white"/>
</svg>

