<svg width="92" height="282" viewBox="0 0 92 282" fill="none" xmlns="http://www.w3.org/2000/svg">
<path d="M91.696 158.303C91.7163 146.41 91.7433 134.518 91.7636 122.625C83.6167 116.971 76.0643 110.463 69.2888 103.161C43.9025 76.2785 30.7297 37.8812 32.0267 0H0.256683C0.0945565 2.9886 0 6.0003 0 9.02741C0 50.0744 16.9963 80.7769 25.7713 96.2667C45.2535 130.643 70.4642 151.61 87.197 163.079C78.4354 172.761 70.6736 183.783 64.0737 195.861C55.3797 211.767 48.7325 229.521 44.6253 248.554C42.3082 259.284 40.7815 270.399 40.1601 281.829H92V157.995C91.8919 158.095 91.7973 158.203 91.696 158.303Z" fill="#808080"/>
<path d="M51.957 47.8612C39.6875 27.3727 39.4588 8.15608 39.8691 0H91.6109C91.5504 27.9562 91.4898 55.919 91.4226 83.8752C83.6532 80.007 64.8454 69.3988 51.957 47.8612Z" fill="white"/>
</svg>
