<?xml version="1.0" encoding="UTF-8"?>
<svg id="_Слой_2" data-name="Слой 2" xmlns="http://www.w3.org/2000/svg" viewBox="0 0 196.05 443.19">
  <defs>
    <style>
      .cls-1 {
        fill: gray;
        stroke-width: 0px;
      }
    </style>
  </defs>
  <g id="_Слой_4" data-name="Слой 4">
    <g>
      <path class="cls-1" d="m133.94,168.28c0,3.39-1.7,6.53-4.46,8.1-7.37,4.18-18.04,8.55-31.04,8.65-13.33.09-24.25-4.35-31.75-8.58-2.81-1.59-4.58-4.73-4.58-8.16h0c0-6.94,6.8-11.35,12.45-8.09,6.21,3.58,14.16,6.58,23.46,6.58,9.31,0,17.26-3,23.46-6.58,5.65-3.26,12.45,1.15,12.45,8.09h0Z"/>
      <path class="cls-1" d="m133.94,141.64c0,3.39-1.7,6.53-4.46,8.1-7.37,4.18-18.04,8.55-31.04,8.65-13.33.09-24.25-4.35-31.75-8.58-2.81-1.59-4.58-4.73-4.58-8.16h0c0-6.94,6.8-11.35,12.45-8.09,6.21,3.58,14.16,6.58,23.46,6.58,9.31,0,17.26-3,23.46-6.58,5.65-3.26,12.45,1.15,12.45,8.09h0Z"/>
      <path class="cls-1" d="m133.49,115.71c0,3.39-1.7,6.53-4.46,8.1-7.37,4.18-18.04,8.55-31.04,8.65-13.33.09-24.25-4.35-31.75-8.58-2.81-1.59-4.58-4.73-4.58-8.16h0c0-6.94,6.8-11.35,12.45-8.09,6.21,3.58,14.16,6.58,23.46,6.58,9.31,0,17.26-3,23.46-6.58,5.65-3.26,12.45,1.15,12.45,8.09h0Z"/>
      <path class="cls-1" d="m131.35,210.67c-4.01-5.96-8.18-11.83-12.4-17.68-4.19,1.59-8.59,2.74-13.07,3.35,28.56,42.04,71.46,110,72.91,147.44-.63,27.16-14.63,51.76-37.5,66.29-53.48,33.46-122.56-3.47-123.07-66.91.5-13.69,5.51-26.22,10.78-39.09,16.74-37.8,38.69-73.22,61.82-107.72-4.61-.61-9.11-1.8-13.43-3.48-24.09,33-46.38,67.27-63.95,104.32C7.13,311.26.69,326.94.02,342.87c-1.17,64.26,59.86,113.05,122.27,97.35,43.65-10.47,74.47-51.97,73.74-96.44-1.9-40.06-42.34-99.49-64.69-133.11Z"/>
      <path class="cls-1" d="m98.39,106.43c2.06-.17,4.11-.56,6.12-1.17,1.38-.42,2.76-.94,4.1-1.58.43-.2.81-.38,1.18-.57-.97-6.23-1.83-12.68-2.54-19.34-3.44-32.55-2.38-61.07.04-83.76h-18.93c2.57,22.87,4.03,49.97,2.56,80.32-.42,8.77-1.08,17.2-1.9,25.36,1.34.31,2.68.56,4.04.69,1.76.17,3.54.2,5.31.05Z"/>
    </g>
  </g>
</svg>