<?xml version="1.0"?>
<svg width="1280" height="969" xmlns="http://www.w3.org/2000/svg" xmlns:svg="http://www.w3.org/2000/svg" preserveAspectRatio="xMidYMid meet">
 <metadata>Created by potrace 1.15, written by Peter Selinger 2001-2017</metadata>
 <g class="layer">
  <title>Layer 1</title>
  <g fill="#000000" id="svg_1" transform="translate(0 969) scale(0.1 -0.1)">
   <path d="m6060,9684c-25,-2 -106,-8 -180,-14c-1128,-91 -1877,-586 -2169,-1432c-133,-386 -166,-864 -91,-1323c11,-66 60,-444 110,-840c50,-396 94,-723 98,-727c4,-4 47,-19 96,-33c49,-14 95,-29 103,-34c9,-5 -17,-23 -79,-56c-51,-26 -94,-49 -96,-50c-2,-2 11,-103 27,-226c17,-123 44,-334 61,-469c16,-135 32,-259 35,-276c5,-28 0,-35 -52,-76c-32,-25 -89,-75 -126,-112l-69,-65l-50,25c-132,67 -365,139 -548,169c-52,9 -162,18 -245,22c-569,21 -1050,-225 -1271,-650c-93,-179 -127,-325 -128,-538l0,-147l-65,-6c-209,-21 -463,-98 -671,-201c-686,-341 -941,-962 -595,-1450c55,-78 182,-198 270,-257c238,-158 536,-251 852,-265l133,-6l31,-55c137,-242 494,-410 999,-468c177,-20 579,-15 760,10c274,38 559,110 774,195l119,47l66,-44c294,-197 746,-313 1286,-329c632,-18 1287,109 1843,359l113,51l122,-27c630,-140 1434,-122 2209,50c1063,235 1838,732 1886,1207l7,71l55,13c417,102 718,249 915,448c87,89 134,159 173,263c35,92 37,246 4,339c-51,144 -169,288 -330,403c-116,82 -329,187 -490,240l-130,43l-11,58c-21,121 -107,232 -258,332l-72,48l6,97c4,79 1,114 -16,185c-23,96 -85,242 -99,233c-5,-3 -7,-89 -4,-194c3,-104 2,-206 -2,-225l-7,-36l-45,21c-27,14 -46,30 -49,43c-2,11 -15,101 -30,200c-14,99 -31,200 -38,225l-11,45l-7,-45c-4,-25 -8,-127 -8,-227l-1,-182l-60,21c-47,15 -60,24 -56,37c30,105 63,388 47,404c-12,12 -32,-30 -86,-188c-20,-60 -38,-111 -40,-113c-1,-1 -21,44 -45,100c-74,175 -109,240 -128,236c-33,-7 -18,-85 47,-249c33,-84 59,-155 57,-156c-6,-6 -198,45 -207,54c-5,5 -21,42 -35,83c-27,76 -36,159 -21,215c7,29 7,29 -9,10c-54,-68 -71,-153 -51,-249l8,-39l-33,6c-447,79 -700,109 -1125,133c-117,6 -123,8 -123,28c0,11 25,185 55,386c31,201 87,572 125,825c38,253 92,611 120,795c63,414 76,595 61,849c-13,212 -32,358 -67,520c-154,717 -528,1236 -1100,1528c-246,126 -515,206 -849,253c-71,10 -198,34 -281,53c-153,35 -361,68 -554,87c-105,11 -674,21 -760,14z" fill="#ffffff" id="svg_2"/>
  </g>
 </g>
</svg>