<?xml version="1.0" encoding="UTF-8"?>
<svg id="_Слой_2" data-name="Слой 2" xmlns="http://www.w3.org/2000/svg" viewBox="0 0 407.76 458.67">
  <defs>
    <style>
      .cls-1 {
        fill: #fff;
        stroke-width: 0px;
      }
    </style>
  </defs>
  <g id="_Слой_2-2" data-name="Слой 2">
    <g>
      <path class="cls-1" d="m353.71,0c-51.54,10.33-116.78,18.62-192.18,16.96C102.93,15.67,51.22,8.65,8.11,0,3.34,63.15.37,130.59.03,201.87c-.38,81.34,2.73,157.79,8.07,228.72,6.6-2.5,15.98-5.19,27.45-5.85,16.8-.97,30.24,2.89,38.12,5.85,3.85-6.82,7.71-13.63,11.56-20.45l-21.58-40.46,65.84-53.84v-51.65l48.08-36.47,47.79-67.57h47.61l22.03-61.37c15.8-12.2,31.6-24.4,47.4-36.61-.63-6.44-.84-14.09,0-22.61,1.68-16.97,6.86-30.47,11.3-39.56Zm-92.19,145.26c-17.99.57-35.98,1.13-53.96,1.7-13.05,22.61-26.11,45.22-39.16,67.83-18.98,13.45-37.95,26.91-56.93,40.37-2.02,19.11-4.04,38.22-6.06,57.33-18.3,15.21-36.61,30.42-54.91,45.62,3.09,9.82,6.19,19.65,9.29,29.47-2.93-.47-6.29-.81-10.01-.84-6.09-.05-11.35.74-15.51,1.69-4.65-51.47-6.85-109.19-4.35-172.04,1.54-38.78,4.7-75.29,8.88-109.28,45.84,6.54,96.08,11.38,150.19,13.19,29.29.98,57.41,1,84.25.27-3.9,8.23-7.81,16.45-11.71,24.68Zm68.73-87.39c-14.64,10.72-29.28,21.44-43.92,32.17-27.43,3.02-57.61,4.88-90.15,4.69-63-.37-118.32-8.31-163.86-18.3,1.83-14.59,3.65-29.19,5.48-43.78,42.15,10.88,97.65,20.83,163.02,21.17,50.11.26,93.96-5.18,129.69-12.09-.09,5.38-.18,10.76-.27,16.15Z"/>
      <path class="cls-1" d="m374.44,274.55c6.18-70.43,19.38-131.1,33.32-179.8-17.99,9.91-35.99,19.82-53.98,29.73l-28.88,62.27-49.11-4.41-52.09,60.87-47.89,29.98-4.6,51.24-67.75,45.94,16.9,39.93-13.26,19.22c33.52,10.59,75.79,20.85,125.23,25.9,56.29,5.76,105.18,3.05,143.21-1.79-4.96-49.58-7.13-110.3-1.09-179.08Zm-32.03,153.42c-29.45,3.49-68.06,5.21-112.64-.41-39.26-4.95-72.39-14.22-98.11-23.42-4.97-10.95-9.94-21.9-14.9-32.85,22.06-15.43,44.12-30.86,66.18-46.28,1.08-15.88,2.15-31.76,3.23-47.64,17.36-10.9,34.72-21.8,52.08-32.7,14.27-17.5,28.53-34.99,42.8-52.49,16.96.81,33.91,1.61,50.87,2.42,7.09-16.24,14.18-32.48,21.26-48.72,7.9.36,15.79.72,23.69,1.08-10.68,33.72-20.71,73.44-27.45,118.43-9.35,62.38-9.8,117.71-7,162.57Z"/>
    </g>
  </g>
</svg>