<?xml version="1.0" encoding="UTF-8"?>
<svg id="_Слой_2" data-name="Слой 2" xmlns="http://www.w3.org/2000/svg" viewBox="0 0 260.64 141.82">
  <defs>
    <style>
      .cls-1 {
        fill: #7f7d7e;
        stroke-width: 0px;
      }
    </style>
  </defs>
  <g id="_Слой_5" data-name="Слой 5">
    <g>
      <path class="cls-1" d="m161.38,78.67c-31.18-1.05-57.71-6.28-78.18-11.92-7.51,5.82-15.94,11.76-25.33,17.52-20.85,12.81-40.8,21.33-57.87,27.1,35.8,10,77.24,19.01,123.61,24.64,28.21,3.43,54.78,5.19,79.37,5.8,10.73-8.7,23.93-21.18,36.42-38.25,9.64-13.17,16.44-25.78,21.25-36.39-24.18,6.52-58.32,12.87-99.26,11.5Zm-67.92,31.28c-7.24.48-15.15-2.04-15.11-4.17.03-1.83,5.91-3.3,9.79-3.62,7.61-.63,15.83,2.08,15.77,4.22-.05,1.87-6.27,3.29-10.44,3.57Zm103.14-8.71c-.29.6.64,1.39,1.35,2.6,1.23,2.08,1.43,4.72.85,6.45-.63,1.88-2.2,3.12-4.02,3.9-5.58,2.39-11.48,4.29-17.42,5.49-13.84,2.8-27.88,3.62-41.97,2.51-8.01-.63-16-1.71-23.29-5.52-2.04-1.06-3.97-2.21-3.88-5.16.04-1.19.29-2.13.81-2.87.6-.85,1.36-1.23,2.04-1.58,1.18-.61,2.86-1.53,5.01-2.9,0-.23-.03-.57-.19-.94-1.11-2.62-6.73-2.18-13.08-2.29,0,0-17.63-.32-21-5.2-.24-.35-.95-1.37-.74-2.53.22-1.21,1.33-1.92,1.78-2.26,8.46-6.24,34.44-5.69,34.49-5.69h0c21.93,0,41.42,2.08,46.97,3.09,0,0,3.17.58,6.16.31.46-.04.89-.09,1.27-.15.85-.13,1.5-.28,1.74-.33.05-.01.08-.02.09-.02,9.47-2.31,26.62-.27,26.62-.27,15.2,2.14,18.49,4.5,18.61,6.29.13,1.97-3.51,4.08-5.56,4.79-3.43,1.17-10.76,1.88-14.76,1.77-.42-.01-1.59-.05-1.87.52Z"/>
      <path class="cls-1" d="m135.3,117.98c8.6.25,17.07,0,25.54-1.18,4.54-.6,37.02-5.37,32.08-12.64-.78-1.1-1.95-1.99-3.12-2.8,1.92.88,4.44,2.05,4.72,4.51-.29,7.07-19.04,11.07-24.81,12.2-11.32,2.06-23.14,2.42-34.41-.1h0Z"/>
      <path class="cls-1" d="m116.21,106.85c-2.15,1.28-4.85,2.65-1.98,5.03,3.55,2.7,8.18,3.43,12.35,4.96-3.78.17-7.56-.39-11.02-2.03-4.94-2.38-5.79-7.25.65-7.95h0Z"/>
      <path class="cls-1" d="m85.04,92.48c2,1.57,4.24,2.63,6.6,3.15,4.84,1.15,10.01-.09,14.93.88,2.53.48,4.97,1.28,7.23,2.45-2.49-.47-4.96-.87-7.42-1.08-7.4-.41-16.21,1.71-21.34-5.4h0Z"/>
      <path class="cls-1" d="m214.69,94.07c-5.56,3.94-13.14,5.07-19.63,3.01,2.91-.25,7.06-.54,9.89-1.02,2.84-.38,6.91-1.35,9.74-1.99h0Z"/>
      <path class="cls-1" d="m81.54,105.17c6.15,1.68,12.2,1.87,18.46.63-5.64,2.95-13.03,2.7-18.46-.63h0Z"/>
      <path class="cls-1" d="m95.47,35.45c1.81,4.87,2.02,9.28.47,9.86-1.56.58-4.29-2.9-6.1-7.76-1.81-4.87-5.27-22.74-5.27-22.74,0,0,9.09,15.77,10.9,20.64Z"/>
      <path class="cls-1" d="m130.14,58.1c1.84,4.95,1.68,9.58-.36,10.34-2.04.76-5.19-2.63-7.04-7.58s-4.52-23.42-4.52-23.42c0,0,10.07,15.72,11.92,20.67Z"/>
      <path class="cls-1" d="m146.98,20.33c1.81,4.87,1.66,9.42-.35,10.17s-5.11-2.59-6.92-7.46c-1.81-4.87-4.44-23.04-4.44-23.04,0,0,9.91,15.46,11.72,20.33Z"/>
    </g>
  </g>
</svg>